<?xml version="1.0" encoding="UTF-8" standalone="no"?>
<svg
   xmlns:dc="http://purl.org/dc/elements/1.1/"
   xmlns:cc="http://creativecommons.org/ns#"
   xmlns:rdf="http://www.w3.org/1999/02/22-rdf-syntax-ns#"
   xmlns:svg="http://www.w3.org/2000/svg"
   xmlns="http://www.w3.org/2000/svg"
   viewBox="0 0 266.66666 122.66667"
   height="122.66667"
   width="266.66666"
   xml:space="preserve"
   id="svg2"
   version="1.1"><metadata
     id="metadata8"><rdf:RDF><cc:Work
         rdf:about=""><dc:format>image/svg+xml</dc:format><dc:type
           rdf:resource="http://purl.org/dc/dcmitype/StillImage" /></cc:Work></rdf:RDF></metadata><defs
     id="defs6" /><g
     transform="matrix(1.3333333,0,0,-1.3333333,0,122.66667)"
     id="g10"><g
       transform="scale(0.1)"
       id="g12"><path
         id="path14"
         style="fill:#91bf38;fill-opacity:1;fill-rule:evenodd;stroke:none"
         d="m 782.77,817.191 c -1.399,-20.589 1.64,-39.57 9.179,-56.961 7.582,-17.531 18.52,-31.871 32.852,-42.96 14.148,-11.098 30.469,-17.54 48.988,-19.301 18.481,-1.289 35.621,2.301 51.41,10.859 15.582,8.672 28.473,20.973 38.59,36.91 10.313,15.942 16.371,34.184 18.121,54.813 1.449,20.578 -1.601,39.57 -9.18,56.949 -7.57,17.34 -18.429,31.602 -32.57,42.699 -14.18,11.281 -30.512,17.77 -48.988,19.571 -18.512,1.25 -35.66,-2.43 -51.442,-11.141 -15.75,-8.508 -28.71,-20.738 -38.832,-36.68 -10.16,-15.898 -16.168,-34.179 -18.128,-54.758 m 197.699,-85.429 c -7.891,-12.383 -17.457,-23.012 -28.75,-31.883 -11.25,-8.859 -23.707,-15.391 -37.379,-19.57 10.621,-20.387 18.629,-44.059 24.101,-70.93 5.348,-27.039 7.028,-55.59 5.079,-85.668 -1.918,-30.27 -8.598,-60.27 -20,-90.039 -11.61,-29.762 -28.911,-57.621 -51.918,-83.512 -23.161,-26.058 -53.082,-48.441 -89.762,-67.07 43.898,17.031 81.871,38.75 113.898,65.148 32.032,26.211 57.852,55.434 77.5,87.621 19.774,32.192 33.282,65.469 40.512,99.879 7.27,34.614 8.13,68.641 2.66,102.114 -5.63,33.476 -17.621,64.769 -35.941,93.91 m -212.66,62.968 c -26.719,7.258 -55.739,9.571 -87.11,6.989 -31.211,-2.578 -65.969,-9.258 -104.25,-20.039 18.321,10.308 38.199,19.648 59.602,28.011 21.57,8.508 43.949,15.43 67.07,20.778 23.207,5.121 46.68,8.051 70.508,8.672 -2.93,-9.18 -4.758,-18.75 -5.539,-28.711 -0.32,-5.16 -0.43,-10.391 -0.281,-15.7" /><path
         id="path16"
         style="fill:#00b3e6;fill-opacity:1;fill-rule:evenodd;stroke:none"
         d="m 694.922,631.09 c 1.449,-13.36 5.59,-25.149 12.348,-35.469 6.91,-10.312 15.5,-18.199 25.82,-23.672 10.269,-5.621 21.48,-7.929 33.551,-6.988 12.031,1.289 22.578,5.551 31.597,12.769 9.184,7.43 16.102,16.758 20.742,28.008 4.848,11.453 6.68,23.832 5.551,37.192 -1.441,13.359 -5.621,25.191 -12.543,35.468 -6.758,10.313 -15.269,18.282 -25.578,23.903 -10.32,5.469 -21.488,7.738 -33.558,6.758 -12.071,-1.289 -22.622,-5.539 -31.602,-12.809 -9.18,-7.23 -16.09,-16.559 -20.738,-28.012 -4.852,-11.398 -6.723,-23.789 -5.59,-37.148 m 136.129,-32.34 c -3.512,-8.828 -8.43,-16.719 -14.723,-23.629 -6.098,-6.922 -13.238,-12.5 -21.488,-16.68 9.031,-11.882 16.84,-26.211 23.441,-42.929 6.41,-16.602 10.668,-34.692 12.77,-54.34 2.269,-19.453 1.371,-39.41 -2.653,-59.844 -4.019,-20.277 -11.988,-40.039 -23.91,-59.379 -11.718,-19.289 -28.398,-36.988 -49.918,-53.078 26.211,15.93 48.09,34.098 65.629,54.527 17.531,20.622 30.821,42.262 39.801,64.922 9.02,22.852 13.949,45.782 14.73,68.789 0.661,22.852 -2.66,44.731 -9.89,65.661 -7.379,20.75 -18.629,39.421 -33.789,55.98 M 687.93,615.16 c -18.008,1.641 -36.84,-0.16 -56.45,-5.32 -19.8,-5.309 -41.359,-13.512 -64.718,-24.61 10.66,8.52 22.297,16.758 35,24.61 12.886,7.89 26.476,14.808 40.816,20.781 14.141,5.938 28.871,10.43 44.141,13.52 -0.778,-6.129 -0.938,-12.422 -0.469,-18.832 0.469,-3.547 1.051,-6.911 1.68,-10.149" /><path
         id="path18"
         style="fill:#f3781e;fill-opacity:1;fill-rule:evenodd;stroke:none"
         d="m 574.488,722.578 c -7.379,15.902 -17.457,28.711 -30.148,38.363 -12.699,9.797 -26.641,15.86 -41.762,18.118 -14.957,2.421 -29.687,0.39 -44.18,-6.047 -14.136,-6.762 -25.238,-16.641 -33.277,-29.692 -8.051,-13.05 -12.582,-27.582 -13.519,-43.672 -0.981,-16.097 2.07,-32.109 9.136,-48.046 7.422,-15.942 17.461,-28.711 30.203,-38.364 12.731,-9.84 26.637,-15.859 41.758,-18.117 14.961,-2.23 29.602,-0.242 43.903,6.051 14.339,6.758 25.507,16.637 33.558,29.687 8.039,13.051 12.539,27.582 13.512,43.672 0.976,16.09 -2.113,32.11 -9.184,48.047 M 730.43,297.301 c -34.77,4.179 -65.121,13.289 -91.02,27.269 -26.051,14.02 -47.93,31.25 -65.621,51.641 -17.891,20.469 -31.949,42.418 -42.23,65.898 -10.309,23.321 -17.219,46.602 -20.778,69.77 -3.511,23 -4.019,44.141 -1.441,63.473 -12.07,-0.473 -23.828,1.128 -35.238,4.808 -11.563,3.86 -22.383,9.57 -32.34,17.141 -6.293,-28.629 -6.762,-57.031 -1.453,-85.192 5.472,-28.32 16.101,-55.199 31.882,-80.589 15.739,-25.469 36.129,-48.122 61.047,-68.079 25.082,-19.812 54.223,-35.55 87.383,-47.312 33.129,-11.75 69.731,-18.039 109.809,-18.828 M 588.281,721.602 c -3.551,7.738 -7.812,14.808 -12.812,21.25 19.14,6.449 38.672,10.937 58.672,13.519 20.078,2.578 39.961,3.508 59.57,2.891 19.488,-0.512 38.008,-2.114 55.551,-4.852 -33.641,-2.57 -63.242,-7.379 -88.832,-14.449 -25.739,-7.07 -48.2,-17.301 -67.34,-30.66 -1.449,4.179 -3.051,8.277 -4.809,12.301" /><path
         id="path20"
         style="fill:#f47920;fill-opacity:1;fill-rule:nonzero;stroke:none"
         d="m 114.77,141.051 c 8.628,1.019 17.109,3.91 25.46,8.597 8.75,4.692 13.95,7.852 15.629,9.532 4.371,6.332 7.262,11.172 8.75,14.531 3.012,5.82 5.039,11.758 6.09,17.809 0.629,4.378 -0.859,11.64 -4.371,21.878 -3.129,9.141 -6.207,15.391 -9.219,18.75 -5.308,5.942 -13.089,11.293 -23.281,16.09 -9.918,4.692 -19.527,7.274 -28.906,7.813 -2.422,0.078 -5.7814,0.039 -10.1525,-0.153 -4.3007,-0.117 -9.6093,-0.429 -15.9414,-0.937 L 54.4492,253.238 H 26.3281 c -15,0 -23.12888,-0.578 -24.37888,-1.718 -1.789064,-1.68 -2.339845,-3.2 -1.718751,-4.532 0.199219,-1.679 2.390621,-3.199 6.570311,-4.527 0.6211,-0.121 1.71875,-0.231 3.27732,-0.313 1.6407,-0.117 3.8321,-0.078 6.5625,0.153 3.4375,0.078 6.4805,-1.36 9.2188,-4.371 2.6914,-3.051 4.1015,-7.461 4.2187,-13.282 V 196.371 C 29.7695,195 29.6094,192.66 29.6094,189.34 v -8.129 c 0,-0.859 0.039,-2.031 0.1601,-3.59 0.1914,-1.57 0.3086,-2.781 0.3086,-3.601 v -10.149 c 0,-0.941 -0.1172,-2.351 -0.3086,-4.223 -0.1211,-1.878 -0.1601,-3.128 -0.1601,-3.75 v -8.75 c 0,0 0,-0.699 0,-2.027 0,-1.172 0.082,-2.973 0.3125,-5.473 v -11.097 l -1.0938,-10 V 106.68 l 0.7813,-5.782 v -7.9683 c -0.2305,-2.418 -0.3086,-4.6484 -0.3086,-6.7188 0,-2.1914 -0.082,-4.4921 -0.1602,-6.8711 -0.3125,-3.4414 -0.7812,-6.2187 -1.4101,-8.289 -0.6211,-1.9922 -1.4805,-3.5117 -2.5,-4.5313 -0.9297,-0.9297 -2.0313,-1.6406 -3.2813,-2.0312 -1.25,-0.3086 -2.6094,-0.4688 -4.0586,-0.4688 -2.4218,-0.1093 -4.4492,-0.1484 -6.0898,-0.1484 -1.6797,0 -3.08986,-0.1211 -4.22267,-0.3203 -2.5,-0.8516 -4.29688,-1.832 -5.3086,-2.961 -1.878905,-2.4296 -2.039061,-4.1796 -0.46875,-5.3203 2.5,-1.3593 4.28906,-2.1093 5.46875,-2.1797 h 5.30857 c -0.3086,-0.2382 3.2813,-0.3203 10.7813,-0.3203 h 4.2187 c 6.6407,0.6289 11.7617,0.8594 15.3125,0.7813 6.6407,-0.5391 11.7188,-0.7813 15.1602,-0.7813 h 15 c 5.3086,0 8.3594,0.0821 9.2187,0.3203 4.1407,0 7.0313,1.6407 8.5899,5 l -1.5586,4.5313 -3.2813,1.25 c -4.6914,-0.2422 -8.2109,-0.3203 -10.4687,-0.3203 -2.1914,0 -3.211,0 -2.9727,0 -4.1797,0.3203 -7.5,1.6484 -10,4.0703 -2.4179,2.5 -3.5195,6.6406 -3.2773,12.5 0,0.8203 0,1.9102 0,3.2773 0.0781,1.4414 0.2305,3.1211 0.4687,5 0.5,3.6329 0.7813,6.4805 0.7813,8.5899 0,1.1328 -0.1211,2.3906 -0.3203,3.7497 -0.2305,1.453 -0.4297,2.813 -0.6211,4.063 -0.1211,1.25 -0.2696,2.347 -0.4688,3.289 -0.1211,0.93 -0.1601,1.398 -0.1601,1.398 v 12.352 c 0.1992,1.25 0.3203,2.422 0.3203,3.59 0.0781,1.25 0.1484,2.379 0.1484,3.441 0,1.641 -0.1484,3.469 -0.4687,5.469 -0.3086,1.949 -0.461,3.359 -0.461,4.211 0,2.5 0.9688,6.179 2.961,11.097 1.8789,-0.308 3.0508,-0.589 3.5976,-0.777 l 2.9727,-1.57 c 1.9492,-0.93 3.9375,-1.403 5.9297,-1.403 5.3984,-1.988 9.6914,-4.179 12.8203,-6.558 5,-5.551 8.1601,-9.539 9.5273,-12.039 l 6.2499,-5.461 c 0.703,-0.75 1.25,-1.41 1.563,-2.039 0.308,-0.539 0.629,-0.93 0.937,-1.25 l 0.781,-1.711 0.782,-1.25 c 0.82,-1.57 1.597,-2.93 2.339,-4.07 0.821,-1.051 1.411,-1.989 1.719,-2.809 1.641,-3.359 2.821,-5.27 3.442,-5.781 L 125.23,90.4297 c 2.7,-2.8086 4.93,-5.2305 6.719,-7.1914 1.879,-1.8672 3.36,-3.4375 4.531,-4.6875 3.52,-3.8594 6.571,-7.1797 9.071,-10 2.5,-2.8125 4.527,-5.0703 6.09,-6.711 6.949,-5.5507 16.289,-8.5585 27.968,-9.0703 8.512,-0.5 13.629,0.1993 15.313,2.1914 1.328,1.3282 1.719,3.1289 1.098,5.3086 -0.86,1.961 -3.09,3.3203 -6.719,4.0703 -0.942,-0.3203 -2.27,-0.4296 -3.91,-0.3203 -2.5,0.3203 -4.219,0.6719 -5.161,1.1016 -2.5,0.8203 -3.98,1.2891 -4.371,1.3984 -0.629,0.8203 -1.211,1.5703 -1.718,2.1914 -0.551,0.6993 -1.09,1.4883 -1.719,2.3399 -1.563,2.3906 -2.813,4.2578 -3.75,5.6289 -0.863,1.4414 -1.402,2.582 -1.723,3.4414 -0.738,0.6172 -2.89,3.3594 -6.398,8.2773 l -11.25,16.0896 -2.192,2.973 -1.558,2.5 -5.781,8.129 c -2.739,3.629 -5.239,6.711 -7.5,9.211 -2.192,2.5 -4.219,4.578 -6.098,6.25 -0.863,0.711 -2.262,1.719 -4.223,2.969 -1.871,1.25 -4.289,2.742 -7.179,4.531 z m -56.7192,58.597 c 0.0703,3.633 0.1875,7.192 0.3086,10.622 0.082,3.519 0.1914,7.191 0.3125,10.941 1.3281,9.769 5.1992,16.168 11.5586,19.219 3.3203,0.699 6.25,1.172 8.75,1.41 2.5781,0.308 4.7695,0.461 6.5703,0.461 11.25,1.25 17.7302,1.57 19.5272,0.937 2.383,-0.617 4.922,-1.679 7.652,-3.117 2.821,-1.492 5.79,-3.281 8.911,-5.473 2.699,-1.988 6.25,-7.5 10.629,-16.558 1.32,-3.051 2.531,-5.711 3.589,-7.969 1.129,-2.191 2.11,-4.031 2.969,-5.473 0.942,-3.558 1.094,-8.359 0.473,-14.378 -0.551,-4.18 -1.211,-7.461 -2.031,-9.84 -0.86,-1.68 -1.801,-3.36 -2.821,-5 -0.929,-1.68 -1.828,-3.399 -2.648,-5.16 -2.93,-5.231 -4.961,-8.391 -6.102,-9.532 -1.48,-1.558 -4.961,-3.437 -10.469,-5.617 -4.921,-2.191 -10.699,-3.281 -17.3394,-3.281 -13.2422,0 -23.8711,3.281 -31.8711,9.84 -3.8711,3.32 -6.0586,8.519 -6.5703,15.621 -0.1094,2.269 -0.2304,4.07 -0.3086,5.32 -0.1211,1.25 -0.1601,1.949 -0.1601,2.18 -0.8594,4.769 -1.1719,7.39 -0.9297,7.82 z m 227.2582,-96.41 c 3.953,3.953 6.171,6.293 6.722,7.032 1.328,2.191 1.918,5.242 1.719,9.218 -0.309,4.141 -1.988,8.321 -5,12.5 -3.051,4.571 -6.25,7.742 -9.691,9.532 -3.438,1.878 -8.079,2.968 -13.899,3.281 -5.121,0.398 -10.238,0 -15.32,-1.25 -5.11,-1.172 -10.699,-3.242 -16.719,-6.25 -2.5,-1.36 -5.422,-3.59 -8.742,-6.711 -3.758,-3.559 -6.879,-7.5 -9.379,-11.879 -3.121,-5.621 -4.801,-10.902 -5,-15.781 -0.309,-5.0003 -0.309,-9.18 0,-12.5003 0.82,-6.25 1.801,-10.6992 2.969,-13.2813 4.883,-10.5468 13.121,-18.0898 24.691,-22.6601 5.621,-1.9492 11.442,-2.9688 17.5,-2.9688 4.141,0 8.16,0.5508 12.031,1.5703 4.368,1.75 7.887,3.3204 10.618,4.6797 2.812,1.3321 4.89,2.4297 6.25,3.2813 4.14,2.5 6.961,4.8476 8.441,7.039 1.641,3.1211 2.191,5.8594 1.559,8.2813 -1.481,0 -3.278,-0.8594 -5.469,-2.5 -1.36,-1.6797 -3.039,-2.8906 -5,-3.6016 -7.418,-5 -14.449,-7.5 -21.09,-7.5 -5.43,0 -10.941,1.6407 -16.559,5 -3.05,1.8789 -6.562,6.1016 -10.632,12.6602 -1.481,2.5 -2.457,4.7305 -2.969,6.7187 -1.051,1.8711 -0.621,3.9414 1.25,6.25 9.461,-0.8593 15.711,-1.0976 18.75,-0.7773 6.879,0.6992 13.988,2.5 21.41,5.3086 2.191,0.8203 3.98,1.6016 5.469,2.3403 1.562,0.82 2.89,1.57 4.062,2.191 z M 245.16,99.0195 c 0.309,0.3203 -3.832,0.4688 -12.351,0.4688 -1.36,0.8207 -2.028,3.3207 -2.028,7.4997 0,2.274 0.391,4.922 1.25,7.973 1.641,6.019 4.918,11.289 9.848,15.777 2.18,2.071 5.23,3.91 9.211,5.473 4.07,1.559 7.43,2.07 10.16,1.559 5.078,-0.93 8.828,-4.141 11.25,-9.532 2.5,-5.937 1.91,-11.679 -1.719,-17.187 -5.121,-7.93 -13.672,-11.9494 -25.621,-12.0315 z" /><path
         id="path22"
         style="fill:#f47920;fill-opacity:1;fill-rule:nonzero;stroke:none"
         d="m 369.141,138.871 c -11.993,4.367 -20.313,6.559 -25,6.559 -8.871,0 -16.25,-2.192 -22.192,-6.559 -3.429,-2.742 -6.008,-6.062 -7.648,-10 -1.25,-2.5 -1.879,-5.391 -1.879,-8.601 0,-5.54 1.289,-10.11 3.906,-13.75 2.813,-3.04 5.043,-5.149 6.723,-6.399 1.64,-1.2499 3.429,-2.4999 5.308,-3.7499 6.641,-2.6211 11.762,-4.7695 15.313,-6.4102 8.629,-3.75 13.949,-6.5195 15.937,-8.2812 3.832,-3.5586 5.7,-6.9492 5.621,-10.1602 -0.851,-4.4882 -4.14,-8.0781 -9.839,-10.7812 -3.36,-1.4766 -6.641,-2.1875 -9.84,-2.1875 -3.75,0 -7.5,1.0976 -11.25,3.289 -3.68,2.1797 -7.422,6.0899 -11.25,11.711 -1.68,2.3906 -2.5,4.5703 -2.5,6.5703 -0.551,1.6406 -0.942,2.9687 -1.25,3.8984 -0.321,1.0196 -0.711,1.9219 -1.102,2.6602 -1.789,2.8086 -3.508,4.2187 -5.148,4.2187 -2.43,-0.8593 -3.602,-1.9882 -3.602,-3.4375 l 0.473,-17.8125 c 0.387,-0.7382 0.348,-3.75 -0.152,-9.0586 0,-5 0.66,-7.7812 2.031,-8.289 h 2.5 l 6.25,5 c 0.82,-0.5391 1.719,-1.0508 2.648,-1.5625 0.942,-0.5391 1.961,-1.0078 3.129,-1.3985 1.762,-0.8593 3.363,-1.5703 4.844,-2.1914 1.449,-0.6289 2.656,-1.0976 3.598,-1.4101 1.871,-0.3086 5.968,-0.1875 12.339,0.3125 7.891,0.5508 15.039,2.8984 21.411,7.1875 7.179,5.3906 11.089,11.7226 11.71,18.9101 0.508,4.4532 -0.23,8.9024 -2.179,13.2813 -3.25,7.1914 -10.711,13.0113 -22.352,17.5003 -7.418,2.5 -12.648,4.261 -15.777,5.308 -5.434,2.5 -9.063,5.391 -10.942,8.75 -1.48,3.321 -1.089,6.453 1.098,9.383 3.512,4.68 8.793,6.641 15.781,5.93 1.332,-0.11 2.692,-0.391 4.063,-0.781 1.449,-0.43 2.848,-1.008 4.219,-1.719 4.687,-2.18 8.281,-4.641 10.781,-7.34 2.5,-2.621 4.918,-6.371 7.348,-11.25 1.32,-2.191 2.339,-3.871 2.96,-5 0.629,-1.172 1.02,-1.871 1.25,-2.191 1.641,-0.54 3.051,0.32 4.219,2.5 0.199,0.082 0.321,1.761 0.321,5 0,1.64 -0.161,3.281 -0.469,4.851 -0.242,1.559 -0.321,3.199 -0.321,5 -0.308,1.25 -0.46,4.57 -0.46,10 0,5 -1.532,7.5 -4.54,7.5 z" /><path
         id="path24"
         style="fill:#f47920;fill-opacity:1;fill-rule:nonzero;stroke:none"
         d="m 471.051,103.238 c 3.949,3.953 6.179,6.293 6.719,7.032 1.332,2.191 1.921,5.242 1.718,9.218 -0.308,4.141 -1.988,8.321 -5,12.5 -3.039,4.571 -6.25,7.742 -9.687,9.532 -3.43,1.878 -8.082,2.968 -13.903,3.281 -5.117,0.398 -10.238,0 -15.308,-1.25 -5.121,-1.172 -10.711,-3.242 -16.719,-6.25 -2.5,-1.36 -5.43,-3.59 -8.75,-6.711 -3.75,-3.559 -6.883,-7.5 -9.383,-11.879 -3.117,-5.621 -4.797,-10.902 -5,-15.781 -0.308,-5.0003 -0.308,-9.18 0,-12.5003 0.821,-6.25 1.801,-10.6992 2.973,-13.2813 4.879,-10.5468 13.129,-18.0898 24.687,-22.6601 5.622,-1.9492 11.442,-2.9688 17.5,-2.9688 4.141,0 8.161,0.5508 12.032,1.5703 4.371,1.75 7.89,3.3204 10.621,4.6797 2.82,1.3321 4.89,2.4297 6.25,3.2813 4.148,2.5 6.961,4.8476 8.437,7.039 1.641,3.1211 2.192,5.8594 1.563,8.2813 -1.481,0 -3.281,-0.8594 -5.461,-2.5 -1.371,-1.6797 -3.051,-2.8906 -5,-3.6016 -7.43,-5 -14.461,-7.5 -21.102,-7.5 -5.429,0 -10.937,1.6407 -16.558,5 -3.051,1.8789 -6.559,6.1016 -10.629,12.6602 -1.481,2.5 -2.461,4.7305 -2.961,6.7187 -1.059,1.8711 -0.629,3.9414 1.25,6.25 9.449,-0.8593 15.699,-1.0976 18.75,-0.7773 6.871,0.6992 13.98,2.5 21.398,5.3086 2.192,0.8203 3.992,1.6016 5.473,2.3403 1.559,0.82 2.891,1.57 4.059,2.191 z m -40.153,-4.2185 c 0.313,0.3203 -3.828,0.4688 -12.347,0.4688 -1.36,0.8207 -2.031,3.3207 -2.031,7.4997 0,2.274 0.39,4.922 1.25,7.973 1.64,6.019 4.929,11.289 9.851,15.777 2.18,2.071 5.231,3.91 9.219,5.473 4.058,1.559 7.422,2.07 10.148,1.559 5.082,-0.93 8.832,-4.141 11.25,-9.532 2.5,-5.937 1.922,-11.679 -1.718,-17.187 -5.11,-7.93 -13.668,-11.9494 -25.622,-12.0315 z" /><path
         id="path26"
         style="fill:#f47920;fill-opacity:1;fill-rule:nonzero;stroke:none"
         d="m 530.039,184.801 c -1.25,0.32 -2.109,0.469 -2.5,0.469 -1.801,0 -3.277,-1.641 -4.527,-4.84 l -1.25,-5.629 -0.473,-2.031 -0.469,-1.25 -0.781,-2.809 c -0.859,-2.731 -1.641,-5.121 -2.34,-7.191 -0.75,-2.11 -1.527,-3.821 -2.347,-5.149 -2.192,-3.672 -5.551,-6.883 -10,-9.691 -4.372,-2.731 -8.672,-5.309 -12.813,-7.809 0,-3.359 1.641,-5 5,-5 -0.238,-0.242 1.09,-0.32 3.91,-0.32 h 3.59 c 3.012,-1.871 4.531,-6.481 4.531,-13.75 0,-1.871 -0.121,-4.141 -0.308,-6.711 -0.121,-2.621 -0.16,-4.141 -0.16,-4.539 V 90.8984 c 0,-1.0586 -0.082,-2.3086 -0.153,-3.75 -0.121,-1.3671 -0.16,-2.7695 -0.16,-4.2187 0,-1.5586 -0.078,-3.0508 -0.16,-4.3789 -0.109,-1.25 -0.149,-2.2617 -0.149,-2.961 0,-10 3.282,-17.1093 9.84,-21.25 2.27,-1.371 5.469,-2.039 9.532,-2.039 9.058,0 18.168,2.3476 27.347,7.039 4.68,2.2618 7.34,4.25 7.961,5.9297 1.641,1.6407 2.5,3.1719 2.5,4.5313 0,1.3281 -0.621,2.6992 -1.871,4.0703 -12.617,-5.8594 -20.59,-8.75 -23.91,-8.75 -1.867,0 -3.399,0.3086 -4.527,0.9297 -2.5,1.5703 -4.024,3.9101 -4.532,7.039 -0.121,1.3204 -0.16,2.5704 -0.16,3.75 0,1.3204 0,2.6915 0,4.0586 l -0.621,7.9727 -0.629,7.8086 v 12.8083 c 0,1.133 0.16,2.703 0.469,4.692 0.32,2.07 0.473,3.519 0.473,4.371 0.628,3.64 1.128,6.57 1.558,8.75 v 4.687 c 4.262,1.332 7.07,1.961 8.442,1.883 3.32,0.309 6.168,0.309 8.597,0 3.121,-0.242 5.391,-0.391 6.871,-0.473 1.559,0 2.192,0 1.879,0 3.321,0 5.93,0.981 7.813,2.973 v 5.777 c -1.563,1.442 -4.184,2.192 -7.813,2.192 -4.379,-0.86 -7,-1.18 -7.82,-0.942 -9.68,-0.546 -14.84,-0.468 -15.469,0.153 -2.93,1.57 -4.449,7.187 -4.531,16.879 0.082,-1.989 0.16,-1.559 0.16,1.25 0,2.808 0,8.16 0,16.09 z" /><path
         id="path28"
         style="fill:#92c039;fill-opacity:1;fill-rule:nonzero;stroke:none"
         d="m 925.309,84.1406 c -2.5,5 -4.368,9.4492 -5.618,13.4375 -1.25,4.0629 -2.461,8.0429 -3.601,12.0309 -0.93,2.891 -2.731,6.411 -5.309,10.469 -2.5,4.141 -4.691,9.223 -6.562,15.152 l -1.41,3.911 -1.868,2.808 c -0.32,0.711 -0.632,1.289 -0.941,1.723 -0.309,0.508 -0.551,0.859 -0.621,1.098 -0.75,1.32 -1.367,2.5 -1.879,3.429 -0.551,0.942 -0.941,1.723 -1.25,2.352 l -2.34,5.777 c -0.75,1.871 -1.101,3.672 -1.101,5.473 -0.539,1.437 -1.207,3.199 -2.028,5.308 l -6.25,10.782 -2.5,4.379 c -1.679,2.808 -3.203,5.66 -4.531,8.589 -1.25,2.891 -2.27,5.86 -2.969,8.911 -2.73,10.191 -4.801,15.851 -6.25,17.031 -1.48,1.437 -3.98,2.379 -7.5,2.808 -1.172,0.192 -2.582,0.313 -4.222,0.313 -1.559,0.078 -3.278,0.078 -5.149,0 -2.82,-0.231 -4.808,-0.391 -5.941,-0.473 -1.168,0 -1.641,0 -1.41,0 h -3.278 c -0.859,0 -2.152,0.082 -3.902,0.321 -1.801,0.191 -2.969,0.308 -3.598,0.308 h -4.371 c -1.25,0 -2.43,0 -3.441,0 -0.938,0 -1.68,-0.078 -2.188,-0.156 -2.73,-0.942 -4.609,-2.152 -5.621,-3.594 l -0.32,-2.656 c 0,-2.192 1.332,-3.281 4.07,-3.281 h 6.25 c 4.25,0 8.039,-1.481 11.399,-4.371 4.261,-3.872 6.41,-9.54 6.41,-17.04 v -8.429 c 0,-6.063 0.043,-8.832 0.152,-8.281 l -2.34,-14.071 c 0,-2.5 -0.121,-3.668 -0.312,-3.429 L 836.41,81.3281 c -0.32,-2.1093 -0.59,-4.2187 -0.789,-6.4062 -0.23,-2.1914 -0.461,-4.3321 -0.781,-6.4024 -0.43,-3.4414 -1.012,-6.1797 -1.719,-8.1289 -0.621,-1.9922 -1.402,-3.5508 -2.34,-4.6914 -0.941,-1.0508 -2.109,-1.789 -3.441,-2.1797 -1.25,-0.4297 -2.77,-0.7109 -4.531,-0.789 -1.36,0 -2.731,0 -4.059,0 -1.25,0 -2.621,-0.1094 -4.059,-0.3086 -0.941,-1.5625 -1.41,-2.8125 -1.41,-3.75 0,-1.3711 0.821,-2.6211 2.5,-3.75 0.508,-0.4336 3.278,-0.6211 8.278,-0.6211 h 20.472 c 0.699,0 1.797,0 3.278,0 1.64,0 3.48,-0.0391 5.472,-0.1602 1.949,-0.1914 3.598,-0.3125 4.84,-0.3125 1.57,0 2.699,0 3.438,0 2.703,0.3125 4.57,0.7813 5.632,1.4024 1.637,1.5703 2.5,2.8906 2.5,4.0703 0,0.9297 -1.101,1.9492 -3.281,3.1211 -0.941,0 -2.269,0.0781 -3.91,0.3086 -1.559,0.1992 -2.621,0.3203 -3.121,0.3203 -3.25,0.5 -5.629,1.5976 -7.188,3.2773 -2.621,2.6914 -3.91,6.6407 -3.91,11.8711 0,0.3203 0.16,1.7617 0.469,4.3789 0.309,2.6914 0.699,6.5625 1.25,11.5625 V 106.48 c 0,0.2 0.16,1.571 0.469,4.071 0.39,2.57 0.98,6.398 1.722,11.398 l 1.09,7.5 c 0.309,2.071 0.508,3.672 0.629,4.852 0.192,1.129 0.309,2.027 0.309,2.648 0.191,-0.23 0.312,2.11 0.312,7.031 v 6.719 c 0.508,3.52 1.129,6.41 1.879,8.602 v 16.719 c 0,-0.551 -0.082,-0.399 -0.16,0.46 0,0.942 -0.121,2.391 -0.309,4.379 -0.242,2.192 0.039,3.75 0.778,4.692 l 1.09,-1.102 0.632,-1.09 1.09,-2.808 c 0.391,-1.25 0.699,-2.313 0.938,-3.129 0.191,-0.742 0.39,-1.25 0.621,-1.563 l 1.719,-5 4.382,-16.089 2.188,-5.321 c 1.242,-2.109 2.262,-4.019 3.121,-5.777 0.621,-2.731 1.289,-4.762 2.031,-6.094 0.699,-1.488 1.328,-2.656 1.879,-3.598 0.5,-0.929 0.86,-1.71 1.09,-2.339 1.02,-1.371 1.879,-2.5 2.5,-3.442 0.699,-0.929 1.289,-1.719 1.719,-2.34 0.941,-2.308 1.722,-4.488 2.34,-6.558 0.632,-2.11 1.25,-3.91 1.882,-5.473 0.7,-1.367 1.329,-2.5 1.868,-3.437 0.511,-0.942 0.941,-1.801 1.25,-2.5 1.882,-3.36 3.011,-5.27 3.441,-5.782 l 11.41,-30.3082 c 0.93,-2.1094 1.789,-4.1406 2.649,-6.1016 0.941,-1.9883 1.921,-3.9804 2.972,-5.9297 3.199,-7.4297 5.239,-11.3711 6.09,-11.8789 1.328,-0.8593 2.738,-0.7812 4.219,0.1602 2.269,1.3281 6.101,7.5703 11.41,18.75 1.129,2.5 2.379,5.2305 3.75,8.2773 1.449,3.1211 2.891,6.3321 4.379,9.6914 l 17.652,41.4025 c 0,0.707 0.391,1.449 1.25,2.187 l 1.719,2.34 c 0.621,1.02 1.09,1.922 1.41,2.66 0.391,0.7 0.66,1.411 0.781,2.032 l 2.028,5.308 2.5,4.379 6.09,15 c 2.39,1.953 3.832,4.371 4.382,7.192 l 1.719,3.902 c 0.82,1.449 1.399,2.699 1.711,3.75 0.399,1.019 0.668,1.879 0.789,2.5 0.391,1.449 0.781,2.699 1.09,3.75 0.391,1.019 0.781,1.918 1.09,2.656 l 3.289,5.942 c 1.75,-0.75 2.652,-2.739 2.652,-5.942 0.078,-1.488 0.078,-3.598 0,-6.406 -0.121,-1.172 -0.152,-2.301 -0.152,-3.442 0.07,-1.171 0.191,-2.14 0.312,-2.96 0.188,-1.18 0.309,-2.27 0.309,-3.29 0.078,-1.05 0.16,-2.109 0.16,-3.121 v -3.281 c 0.391,-1.488 0.5,-3.09 0.309,-4.848 -0.239,-1.359 -0.391,-2.46 -0.469,-3.281 0,-0.738 0,-1.25 0,-1.558 v -3.442 c 0.309,-1.359 0.512,-2.578 0.621,-3.59 0.078,-1.058 0.238,-1.949 0.469,-2.66 V 131.02 c 0,-0.75 -0.231,-2.309 -0.621,-4.692 -0.239,-1.25 -0.117,-2.777 0.312,-4.527 V 98.8281 c 0.309,-1.1679 0.547,-2.1484 0.778,-2.9687 0.32,-0.8594 0.511,-1.5196 0.632,-2.0313 v -6.5586 c -0.312,-1.25 -0.472,-2.6601 -0.472,-4.2187 -0.43,-1.3711 -0.629,-2.582 -0.629,-3.6016 v -7.8086 c 0,-7.5 -1.25,-12.6601 -3.75,-15.4687 -1.789,-1.793 -5.391,-2.8125 -10.781,-3.1211 -1.68,-0.1211 -2.93,-0.1602 -3.75,-0.1602 -0.86,0 -1.399,0 -1.719,0 -2.11,0 -3.82,-0.9023 -5.149,-2.6601 0,-3.9805 2.11,-5.9297 6.399,-5.9297 h 13.281 c 9.77,1.0078 19.689,1.0078 29.689,0 h 8.13 c 0.31,0 0.82,0 1.56,0 0.82,0 1.8,-0.0391 2.97,-0.1602 1.25,-0.1914 2.26,-0.3125 3.12,-0.3125 0.94,0 1.49,0 1.72,0 2.7,0 4.42,0.2735 5.16,0.7813 0.82,0.5117 1.25,1.8711 1.25,4.0625 -1.06,2.8086 -3.91,4.2187 -8.6,4.2187 -2.5,0.3086 -4.53,0.5508 -6.09,0.7813 -1.48,0.3086 -2.5,0.6289 -3.12,0.9375 -3.25,1.8711 -4.85,6.8711 -4.85,15 l -1.25,13.4414 c 0,0.6992 -0.11,1.8711 -0.31,3.4297 -0.12,1.6406 -0.16,2.6992 -0.16,3.1289 -0.11,1.6406 -0.23,3.0117 -0.31,4.0625 -0.12,1.1289 -0.15,1.9492 -0.15,2.5 -0.43,10.6291 -0.79,20.3871 -1.1,29.3791 -0.31,9.058 -0.55,17.539 -0.62,25.469 0.07,3.32 0.15,6.25 0.15,8.75 0,2.5 0.08,4.57 0.31,6.25 -0.31,5.82 -0.62,10.82 -0.93,15 -0.31,4.14 -0.63,7.57 -0.94,10.308 -0.74,9.063 -0.08,14.613 2.03,16.723 1.33,1.25 4.61,2.34 9.84,3.277 2.39,0.512 4.38,0.942 5.94,1.25 1.56,0.391 2.82,0.781 3.75,1.094 l 0.78,1.406 c 0,2.891 -1.21,4.613 -3.59,5.152 h -13.44 c -1.56,0 -2.97,-0.07 -4.22,-0.152 -1.25,0 -2.46,-0.078 -3.59,-0.156 -1.8,-0.313 -4.37,-0.313 -7.81,0 -9.061,0.199 -14.139,0.039 -15.159,-0.473 -4.062,-1.679 -7.5,-8.711 -10.312,-21.09 v -3.437 c -1.489,-3.442 -2.188,-5.703 -2.188,-6.723 -0.941,-3.859 -1.64,-6.051 -2.031,-6.558 -1.25,-2.813 -2.5,-5.313 -3.75,-7.5 -1.172,-2.192 -2.27,-4.141 -3.281,-5.782 L 943.59,123.051 c -1.168,-2.11 -2.141,-3.832 -2.969,-5.16 -0.851,-1.25 -1.562,-2.27 -2.18,-2.969 l -2.191,-4.371 -5.629,-15.1604 -2.031,-4.6914 c -0.738,-3.3594 -1.828,-5.539 -3.281,-6.5586 z M 1072.97,213.52 c -5.55,-2 -8.05,-5.59 -7.5,-10.79 0.08,-3.429 1.87,-6.089 5.31,-7.96 3.13,-1.879 6.25,-1.961 9.38,-0.161 3.94,1.563 6.09,4.45 6.4,8.75 0.39,1.871 0.24,3.59 -0.47,5.161 -0.74,1.64 -1.79,2.89 -3.12,3.75 -1.25,0.929 -2.81,1.48 -4.69,1.71 -1.87,0.2 -3.67,0.04 -5.31,-0.46 z m 27.65,-165.4692 c -0.62,1.8711 -1.4,2.9687 -2.34,3.2773 0.08,-0.1172 -0.94,-0.1562 -3.12,-0.1562 -0.24,0 -0.59,0 -1.1,0 -0.43,0 -1.17,0.039 -2.18,0.1562 -1.49,0 -2.5,0.3125 -3.13,0.9414 -1.8,1.25 -2.73,2.8516 -2.81,4.8399 0.08,-2.1875 0.15,-2.9297 0.15,-2.1875 0.08,0.8164 0.16,3.1679 0.16,7.0273 v 28.1289 c -0.12,0.8203 -0.16,1.5625 -0.16,2.1914 0,0.6993 0,1.2813 0,1.711 v 18.9105 c 0,5.937 -0.23,9.097 -0.62,9.531 -1.06,1.019 -2.27,1.558 -3.59,1.558 -0.24,0 -1.88,-0.46 -5,-1.402 -2.93,-1.058 -5.47,-1.879 -7.66,-2.5 -2.19,-0.629 -4.14,-1.25 -5.78,-1.879 -2.5,-0.738 -4.85,-1.398 -7.03,-2.027 -2.19,-0.551 -4.34,-1.094 -6.41,-1.723 -1.37,-1.48 -1.41,-2.769 -0.16,-3.898 0.71,-1.172 2.35,-1.723 4.85,-1.723 0.7,0 2.07,0.192 4.06,0.621 2.07,0.512 3.63,0.781 4.69,0.781 1.33,0 2.26,-0.269 2.81,-0.781 1.33,-1.051 2.07,-3.668 2.19,-7.808 0.19,-2.4222 0.19,-5.2308 0,-8.4418 -0.12,-2.1094 -0.16,-3.5898 -0.16,-4.5273 0,-0.8633 0,-1.0938 0,-0.7813 V 77.5781 c 0.08,0.1914 0.16,-1.4062 0.16,-4.8476 V 62.1094 c 0,-4.6094 -0.55,-7.418 -1.56,-8.4375 -0.94,-0.9414 -5.47,-1.4024 -13.6,-1.4024 l -2.34,-2.1914 c 0,-3.4375 2.58,-5.1562 7.81,-5.1562 0.63,0 1.45,-0.1211 2.5,-0.3125 1.13,-0.2305 2.03,-0.3086 2.66,-0.3086 h 1.25 l 1.09,1.25 c 0,0 0.16,-0.1211 0.47,-0.3203 0.39,-0.2305 0.98,-0.5391 1.72,-0.9297 h 21.4 c 2.58,0 4.54,0.1875 5.78,0.6211 1.76,0 3.44,1.0195 5,3.1289 z" /><path
         id="path30"
         style="fill:#92c039;fill-opacity:1;fill-rule:nonzero;stroke:none"
         d="m 1146.52,110.551 c -0.31,0.699 -0.54,1.398 -0.62,2.027 0,0.703 -0.12,1.172 -0.31,1.402 l 0.78,2.04 v 1.558 c -0.86,2.891 -2.27,5.082 -4.22,6.563 -1.8,1.129 -5.39,0.629 -10.78,-1.563 -2.82,-1.058 -5.16,-1.957 -7.03,-2.656 -1.8,-0.742 -3.21,-1.332 -4.22,-1.723 h -3.6 c -2.61,-0.859 -4.14,-1.558 -4.53,-2.179 -0.94,-1.801 -0.9,-3.36 0.16,-4.692 l 0.94,-0.308 1.09,-0.321 h 1.56 l 1.1,0.321 0.78,0.308 h 1.56 c -0.55,0 -0.47,0.043 0.16,0.152 0.62,0.079 1.75,0.2 3.43,0.321 1.14,0.187 2.27,-0.16 3.44,-1.102 1.02,-0.859 1.56,-4.449 1.56,-10.7771 0,-0.7422 0.04,-1.7227 0.16,-2.9727 0.19,-1.25 0.31,-1.9492 0.31,-2.0273 V 82.7305 c 0,-2.5 0,-4.961 0,-7.3399 0,-2.4218 -0.08,-4.8398 -0.15,-7.3398 -0.32,-8.0508 -1.53,-12.7813 -3.6,-14.2227 -3.04,-0.9375 -5.7,-1.25 -7.97,-0.9375 -3.67,0 -5.47,-1.6797 -5.47,-5 0.94,-1.9922 2.74,-2.9687 5.47,-2.9687 0.94,-0.3125 1.8,-0.4727 2.66,-0.4727 1.76,0.5117 2.73,0.7813 2.97,0.7813 0.7,0.0781 1.95,0.1601 3.75,0.1601 1.87,0.0782 4.3,0.1602 7.34,0.1602 h 8.44 c 6.02,-0.8594 9.45,-1.211 10.31,-1.1016 1.64,0.1992 3.32,0.6719 5,1.4102 1.76,0.6992 3.32,1.8711 4.69,3.4414 v 2.1797 c -1.88,1.7578 -4.06,2.2695 -6.56,1.5703 -0.24,0 -1.25,-0.2422 -3.13,-0.6289 -1.48,-0.3125 -2.58,-0.1524 -3.28,0.4687 -1.8,0.6992 -3.05,3.4805 -3.75,8.2813 -0.31,1.9492 -0.43,3.9492 -0.31,5.9375 0.08,2.0703 0.23,4.3008 0.47,6.7187 0.19,3.75 0.31,7.0703 0.31,10 0.08,3.0117 0.16,5.5117 0.16,7.5 1.44,9.3709 5.86,16.0119 13.28,19.9999 3.2,1.641 5.97,2.5 8.28,2.5 1.76,0 3.2,-0.387 4.37,-1.098 1.25,-0.742 2.11,-2.3 2.66,-4.679 0.62,-1.571 0.98,-3.832 1.09,-6.723 0.2,-1.3671 0.32,-3.5194 0.32,-6.4061 0.07,-2.9336 0.15,-6.7227 0.15,-11.4024 v -9.539 c 0,-3.3594 0.04,-6.211 0.16,-8.5899 0.08,-2.3008 0.19,-4.1797 0.31,-5.6211 0.7,-7 2.07,-11.3281 4.06,-12.9687 2.07,-1.5703 9.89,-2.3516 23.44,-2.3516 3.2,0.5117 5.16,0.8594 5.78,1.1016 1.13,1.25 1.72,2.9687 1.72,5.1484 -2.5,1.3321 -4.45,1.7227 -5.78,1.1016 h -5.63 c -1.68,0.6992 -2.77,1.4375 -3.28,2.1797 -0.23,0.0781 -0.7,1.25 -1.4,3.4414 0,3.0078 -0.39,5.2383 -1.1,6.7187 v 22.0313 c 0,5.5078 0,9.8789 0,13.1289 0,3.1992 -0.07,5.1872 -0.15,5.9292 -0.75,6.45 -1.25,10.2 -1.57,11.25 -1.17,3.008 -3.43,5.399 -6.87,7.192 -2.31,1.25 -4.84,1.879 -7.66,1.879 -4.61,0 -9.96,-1.531 -16.09,-4.531 -6.88,-4.379 -11.95,-7.899 -15.16,-10.469 z" /><path
         id="path32"
         style="fill:#92c039;fill-opacity:1;fill-rule:nonzero;stroke:none"
         d="m 1323.32,63.8281 c -0.43,0.5117 -0.94,0.7813 -1.56,0.7813 -0.43,0 -2.46,-1.0586 -6.1,-3.1289 -3.43,-2.1016 -5.43,-3.1211 -5.93,-3.1211 -0.75,0 -1.41,0.1914 -2.03,0.6211 -1.8,1.3281 -2.66,9.0703 -2.66,23.1289 v 4.0625 l -0.63,7.1875 c -0.31,4.7617 -0.58,9.0626 -0.78,12.8126 -0.11,3.75 -0.15,7.027 -0.15,9.848 0,1.871 0.04,4.101 0.15,6.71 0.2,2.579 0.47,5.551 0.78,8.911 v 1.558 c -0.11,0.512 -0.15,1.102 -0.15,1.723 0.51,0.629 0.78,1.637 0.78,3.129 0.31,6.129 0.31,11.949 0,17.5 0,1.008 -0.08,2.34 -0.16,3.898 0,1.571 -0.11,3.321 -0.31,5.321 -0.12,2.07 -0.16,3.82 -0.16,5.308 0,1.641 0,3.012 0,4.063 0,2.269 0,4.918 0,7.968 0.08,3.121 0.24,6.602 0.47,10.469 0.39,7.582 0.63,11.762 0.63,12.5 -0.43,6.133 -1.99,9.883 -4.69,11.25 -1.68,0.703 -3.28,1.094 -4.84,1.094 -1.57,0 -3.75,-0.582 -6.57,-1.723 -4.06,-1.679 -6.56,-2.578 -7.5,-2.648 -0.43,-0.121 -1.01,-0.281 -1.71,-0.473 -0.75,-0.117 -1.65,-0.308 -2.66,-0.629 -1.88,-0.429 -3.4,-0.738 -4.53,-0.929 -1.06,-0.122 -1.96,-0.282 -2.66,-0.469 -2.81,-0.242 -5.08,-1.172 -6.72,-2.821 l 0.47,-3.121 c 1.25,-0.738 2.97,-1.089 5.16,-1.089 0.31,0 0.54,0 0.78,0 0.51,0 1.01,0.07 1.56,0.308 h 2.66 c 5.31,0.703 8.51,0.703 9.69,0 1.13,-0.738 1.87,-2.148 2.18,-4.219 0.2,-0.429 0.32,-1.211 0.32,-2.339 0,-1.059 0.03,-2.579 0.15,-4.54 0,-0.429 0.04,-1.32 0.16,-2.652 0.19,-1.25 0.31,-2.269 0.31,-2.969 0.51,-1.679 0.7,-3.437 0.63,-5.308 l -1.25,-16.879 c 0,-0.942 0.07,-2.262 0.31,-3.902 0.19,-1.68 0.31,-2.899 0.31,-3.598 v -7.031 c 0,-0.621 -0.12,-1.563 -0.31,-2.813 -0.12,-1.168 -0.16,-1.988 -0.16,-2.5 0,-2.93 -0.08,-4.488 -0.15,-4.687 v -22.032 l -1.57,-1.718 c -2.11,1.019 -4.14,2.07 -6.09,3.129 -1.99,1.011 -4.02,2.07 -6.09,3.121 -3.25,1.449 -7.19,2.031 -11.88,1.718 -8.05,-0.629 -16.33,-4.449 -24.84,-11.41 -3.99,-3.238 -7.27,-7.109 -9.85,-11.558 -2.93,-5.1215 -4.53,-11.8012 -4.84,-20.0004 -0.24,-5.7422 0.94,-11.2109 3.44,-16.4101 1.44,-3.2422 3.51,-6.25 6.25,-9.0586 6.64,-7.6211 13.82,-11.9102 21.56,-12.9727 0.31,-0.0781 3.16,0.2813 8.59,1.1016 4.89,1.0078 7.74,1.5586 8.6,1.5586 4.14,0.6992 7.07,1.4804 8.75,2.3398 0.82,0.6289 1.91,1.4492 3.28,2.5 1.33,1.0196 2.81,2.3516 4.37,3.9102 0.94,-0.8594 1.41,-2.3086 1.41,-4.3789 0.7,-2.8086 1.13,-4.2891 1.25,-4.3711 1.87,-2.8086 4.73,-4.0586 8.59,-3.75 3.21,0.1211 8.21,2.8125 15,8.1211 1.14,0.8203 2.42,1.6484 3.91,2.5 0.82,0.5078 2.03,1.6484 3.59,3.4414 2.27,2.8086 3.44,5.3476 3.44,7.6562 z m -80.47,34.5313 c 1.56,6.4416 5.67,11.2496 12.35,14.3706 4.45,2.071 8.9,3.129 13.28,3.129 8.94,-3.558 14.68,-8.129 17.18,-13.75 1.64,-3.9879 2.27,-11.2106 1.88,-21.7184 -0.24,-3.3593 -0.47,-6.0898 -0.78,-8.2812 -0.24,-2.1094 -0.47,-3.75 -0.78,-5 -0.75,-1.9883 -1.84,-3.9883 -3.28,-5.9375 -4.3,-4.6914 -10.24,-7.0313 -17.82,-7.0313 -5.23,0 -9.65,1.5977 -13.28,4.8399 -3.36,3.1289 -5.74,6.0976 -7.19,8.9101 -2.3,4.0586 -3.28,10.3477 -2.96,18.9102 0.31,4.6797 0.78,8.5078 1.4,11.5586 z" /><path
         id="path34"
         style="fill:#92c039;fill-opacity:1;fill-rule:nonzero;stroke:none"
         d="m 1415.94,223.359 c -7.11,-0.859 -15.28,-3.05 -24.53,-6.558 -9.07,-3.25 -16.53,-7.352 -22.35,-12.352 -3.44,-2.808 -6.83,-6.558 -10.15,-11.25 -0.75,-1.168 -1.84,-2.769 -3.29,-4.84 -1.36,-1.988 -2.96,-4.531 -4.84,-7.66 -7.11,-11.558 -11.25,-19.328 -12.5,-23.277 -2.19,-6.481 -2.93,-16.871 -2.19,-31.25 0.08,-3.442 0.32,-6.481 0.63,-9.063 0.39,-2.5 0.94,-4.687 1.56,-6.558 1.13,-2.821 2.19,-5.551 3.13,-8.129 0.93,-2.5001 1.87,-4.9611 2.81,-7.3439 2.19,-9.0586 4.76,-16.0976 7.81,-21.0976 3.2,-5.4297 9.57,-11.1719 19.06,-17.1797 8.13,-5.2422 14.3,-8.6797 18.6,-10.3203 6.13,-2.2617 11.44,-3.6719 15.93,-4.211 1.14,-0.0781 3.13,-0.1601 5.94,-0.1601 2.89,0 6.49,0.1601 10.78,0.4687 6.45,0.1211 11.14,0.7032 14.07,1.7227 3.75,0.8203 9.72,3.5078 17.97,8.1211 11.13,6.1289 19.57,13.8281 25.31,23.1289 2.07,3.3203 4.41,8 7.03,14.0586 3.2,7.0703 4.92,11.7616 5.16,14.0626 0.5,4.137 0.19,6.719 -0.94,7.656 -1.49,1.563 -2.93,1.641 -4.38,0.313 -1.99,-0.942 -4.33,-5 -7.03,-12.1918 -1.99,-4.6797 -3.75,-8.7109 -5.31,-12.0273 -1.49,-3.2422 -2.93,-5.9024 -4.38,-7.9727 -4.68,-6.8711 -11.64,-12.6484 -20.78,-17.3398 -8.12,-4.3008 -15.31,-6.25 -21.56,-5.9375 -11.25,0.0781 -19.02,1.289 -23.28,3.5976 -5.86,4.0586 -9.61,7.2618 -11.25,9.6797 -2.74,1.8789 -4.69,3.1719 -5.94,3.9102 -1.25,0.6992 -2.19,1.25 -2.81,1.5625 -0.63,0.3867 -1.21,0.7773 -1.72,1.0976 -0.43,0.3907 -0.9,0.7813 -1.41,1.0899 -1.99,2.0703 -3.28,4.3008 -3.9,6.7187 -1.06,3.8321 -1.88,6.7617 -2.5,8.75 -0.55,2.0703 -0.9,3.2813 -1.1,3.5938 -0.11,0.3086 -0.54,1.1289 -1.25,2.5 -0.74,1.4491 -1.68,3.4371 -2.81,5.9371 -1.05,1.871 -1.87,3.672 -2.5,5.469 -0.55,1.762 -0.94,3.442 -1.25,5 -1.25,6.953 -2.19,12.192 -2.81,15.621 -0.55,3.442 -0.78,5.199 -0.78,5.321 -0.12,5.308 1.13,13.941 3.75,25.929 0.94,4.141 2.03,7.973 3.28,11.41 1.33,3.442 2.81,6.602 4.37,9.532 2.82,3.629 5.36,6.8 7.66,9.531 2.27,2.699 4.22,4.918 5.78,6.719 9.38,10.699 27.07,15.39 53.13,14.058 3.94,-0.23 8.98,-2.179 15.15,-5.929 6.14,-3.68 10.08,-7.11 11.88,-10.321 1.13,-2.179 1.64,-6.519 1.56,-12.969 0,-2.808 -0.27,-4.839 -0.78,-6.089 -0.55,-1.68 -1.06,-3.051 -1.56,-4.063 -0.55,-1.058 -0.94,-1.84 -1.25,-2.348 -0.43,-2.73 0.07,-4.679 1.56,-5.929 1.56,-1.172 3.2,-1.332 5,-0.473 3.2,1.442 5.82,5.231 7.81,11.402 0.39,1.961 0.82,3.911 1.25,5.79 0.39,1.871 0.86,3.82 1.41,5.929 l 2.5,10.781 c 0.31,0.821 0.78,2.11 1.4,3.911 0.63,1.757 1.41,4.058 2.35,6.879 1.44,4.058 2.11,6.558 2.03,7.5 -0.63,1.871 -1.95,3 -3.91,3.429 -1.36,0.321 -2.5,0.082 -3.44,-0.621 -0.85,-0.738 -1.67,-1.488 -2.5,-2.187 -2.92,-1.68 -5,-2.621 -6.24,-2.813 -0.12,0 -4.97,1.442 -14.54,4.371 -5.74,1.879 -10.62,2.852 -14.68,2.973 -7.62,0.629 -13.87,0.976 -18.75,1.098 -4.81,0.191 -8.29,0.152 -10.47,-0.161 z" /><path
         id="path36"
         style="fill:#92c039;fill-opacity:1;fill-rule:nonzero;stroke:none"
         d="m 1541.91,108.828 v 8.281 l -1.4,6.871 c 0,0 0.15,0.79 0.47,2.348 0.31,1.641 0.47,3.121 0.47,4.371 v 64.223 c 0,0.629 0,1.449 0,2.5 0.07,1.019 0.19,2.348 0.31,3.906 0.19,1.641 0.31,3.121 0.31,4.371 0.08,1.25 0.16,2.231 0.16,2.973 0,6.25 -1.84,9.379 -5.47,9.379 -1.56,0 -4.34,-0.781 -8.28,-2.352 l -5.78,-2.5 c -1.88,-1.168 -3.72,-1.719 -5.47,-1.719 l -5.78,-2.179 c -2.93,-1.18 -4.61,-1.961 -5,-2.352 -1.18,-0.859 -1.72,-2.418 -1.72,-4.679 0.93,-0.942 2.22,-1.25 3.9,-0.942 2.82,0.512 4.22,0.781 4.22,0.781 2.5,0.7 5.04,0.551 7.66,-0.468 0.39,-1.801 0.78,-3.59 1.09,-5.469 0.39,-1.793 0.67,-3.902 0.78,-6.402 0.2,-2.5 0.32,-5.469 0.32,-8.911 0.07,-3.359 0.15,-7.308 0.15,-11.879 v -30.929 c 0.2,-1.879 0.31,-3.563 0.31,-5 0.08,-1.371 0.16,-2.66 0.16,-3.91 0.2,-5.551 0.31,-10.27 0.31,-14.219 0.08,-3.981 0.08,-7.192 0,-9.692 -0.31,-5.7417 -0.58,-9.3316 -0.78,-10.7808 -0.43,-4.6797 -0.86,-8.8594 -1.25,-12.5 v -4.8398 c 0,-0.4297 0.08,-1.8008 0.31,-4.0586 0.2,-2.1914 0.32,-3.9102 0.32,-5.1602 0.19,-7.1914 -0.94,-11.6406 -3.44,-13.2812 -1.25,-0.7383 -3.24,-0.9375 -5.94,-0.6289 -2.81,0.0781 -4.84,-0.6992 -6.09,-2.3399 -1.17,-1.5625 -1.25,-3.2422 -0.31,-5 1.01,-1.25 5,-1.7187 11.87,-1.4101 2.89,0.0781 5.35,0.1601 7.34,0.1601 1.96,0.0782 3.44,0.1602 4.38,0.1602 h 5.94 c 0.93,0 2.34,-0.1211 4.22,-0.3203 1.95,-0.2305 3.32,-0.3086 4.06,-0.3086 3.32,0 6.17,1.0195 8.59,3.1289 0,1.8711 -0.39,3 -1.09,3.4297 -0.63,0.5078 -2.11,1.0195 -4.38,1.5703 h -3.75 c -0.62,0.1875 -1.68,1.168 -3.12,2.9687 -0.43,0.8203 -0.63,3.2813 -0.63,7.3399 v 8.4414 c 0,0.6211 0,1.4805 0,2.6484 0,1.1406 -0.11,2.6602 -0.31,4.5313 -0.23,3.0078 -0.23,5.3203 0,6.8789 0.31,2.5 0.63,4.5312 0.94,6.0898 0.31,1.5703 0.62,2.6992 0.94,3.4414 1.56,6.1294 7.65,11.1684 18.28,15.1604 4.76,1.75 8.59,1.437 11.4,-0.942 1.57,-1.168 2.58,-2.621 3.13,-4.379 0.08,-0.621 0.15,-1.402 0.15,-2.339 0,-0.942 0.04,-2.27 0.16,-3.9105 0.2,-1.5586 0.31,-2.8907 0.31,-3.9024 0,-0.8593 0.04,-1.4883 0.16,-1.8789 0,-0.6211 -0.24,-1.5586 -0.63,-2.8086 -0.31,-1.25 -0.46,-2.1093 -0.46,-2.5 v -3.75 c 0,-1.1718 0.07,-2.1523 0.31,-2.9687 0.19,-0.8633 0.31,-1.6836 0.31,-2.5 v -7.9727 c 0,-0.3086 0,-0.8594 0,-1.5586 0,-0.7422 0.08,-1.8008 0.31,-3.1211 v -6.5703 c 0,-8.039 0.63,-12.5703 1.88,-13.5898 2.81,-0.4297 5.39,-0.6289 7.81,-0.6289 2.58,-0.3086 4.88,-0.5821 6.88,-0.7813 1.95,-0.1094 3.67,-0.1875 5.15,-0.3086 1.45,-0.1914 2.89,-0.1914 4.38,0 1.01,0.1211 1.72,0.1602 2.03,0.1602 0.39,0 0.54,0 0.47,0 3.2,0.6211 5.04,1.789 5.47,3.5898 0.39,1.4492 -0.16,2.7305 -1.72,3.9102 -0.63,0.6211 -2.43,0.7773 -5.32,0.4687 -2.93,-0.3203 -4.92,-0.1211 -5.93,0.6211 -1.8,1.0196 -2.89,2.8086 -3.28,5.3086 0,0.0821 0,0.711 0,1.8789 0,1.25 -0.12,2.9727 -0.32,5.1524 v 6.5703 c 0,0.3086 0,0.6992 0,1.25 0,0.6992 0.08,1.4805 0.32,2.3398 v 16.8789 c 0,3.5118 -0.12,6.6407 -0.32,9.3715 -0.11,2.808 -0.31,5.238 -0.62,7.339 -1.17,7.071 -3.52,11.571 -7.03,13.442 -2.11,0.816 -4.22,1.25 -6.41,1.25 -2.93,0 -6.95,-0.781 -12.03,-2.344 -3.44,-1.168 -6.49,-2.269 -9.06,-3.277 -2.5,-1.063 -4.53,-2.11 -6.1,-3.129 -2.42,-1.481 -4.37,-2.731 -5.93,-3.75 -1.49,-1.051 -2.58,-1.832 -3.29,-2.344 z" /><path
         id="path38"
         style="fill:#92c039;fill-opacity:1;fill-rule:nonzero;stroke:none"
         d="m 1686.88,52.8906 c -2.31,0 -3.44,1.4492 -3.44,4.3789 0,0.6993 0.04,1.75 0.15,3.1211 0.2,1.4492 0.32,2.3399 0.32,2.6602 0.7,7.2578 0.93,13.039 0.62,17.3398 -0.12,2.8907 -0.31,5.1992 -0.62,6.8789 -0.32,3.75 -0.59,6.711 -0.79,8.9024 -0.23,2.1875 -0.31,3.5976 -0.31,4.2191 0,8.007 -1.21,13.281 -3.59,15.781 -5.12,5.707 -11.64,8.598 -19.53,8.598 -3.99,0 -9.65,-1.879 -17.03,-5.629 -6.18,-3.243 -10.94,-6.371 -14.38,-9.371 -3.44,-3.051 -6.05,-6.372 -7.81,-10.0005 -1.56,-3.4414 -1.56,-6.8398 0,-10.1601 1.01,-1.5586 2.23,-2.6602 3.59,-3.2813 0.32,-0.1172 1.56,-0.1562 3.75,-0.1562 4.26,-0.3125 7.39,1.1289 9.38,4.3789 0.93,1.4375 1.4,3.6289 1.4,6.5586 -0.31,3.9416 -0.31,6.2886 0,7.0316 0.08,1.328 0.67,2.699 1.72,4.058 1.02,1.332 2.23,2.66 3.6,3.91 1.44,1.25 2.97,2.27 4.53,3.121 1.64,0.821 3.12,1.29 4.37,1.411 4.38,0.629 8.17,-0.782 11.41,-4.219 3.12,-3.363 3.94,-7.652 2.5,-12.9728 -0.86,-3.3594 -5.12,-6.9883 -12.81,-10.9297 -2.5,-1.1797 -5,-2.3476 -7.5,-3.5976 -2.5,-1.25 -4.96,-2.461 -7.35,-3.5938 -3.04,-1.6797 -5.39,-3.0898 -7.03,-4.2187 -1.56,-1.0586 -2.62,-1.8008 -3.12,-2.1875 -4.93,-4.1836 -7.43,-8.8711 -7.5,-14.0625 -0.12,-3.2383 0.54,-6.25 2.03,-9.0586 1.13,-1.8789 3.01,-3.8711 5.62,-5.9414 3.21,-2.1875 6.6,-3.2813 10.16,-3.2813 1.87,0 7.11,1.3321 15.78,3.9024 1.64,1.6406 3.36,2.5 5.16,2.5 1.13,0.7109 2.11,1.289 2.96,1.7187 0.94,0.3906 1.57,0.7813 1.88,1.1016 2.27,-1.6797 3.59,-2.9727 3.91,-3.9102 3.2,-3.1211 6.6,-4.6914 10.15,-4.6914 2.5,0 5.04,0.711 7.66,2.0313 3.94,1.9609 6.48,4.1484 7.66,6.5703 0.93,1.5586 1.44,4.25 1.56,8.1211 l -1.25,1.25 c -1.49,-1.5625 -2.58,-3.0508 -3.28,-4.3711 -1.49,-2.1914 -2.97,-3.5195 -4.53,-3.9102 z m -39.38,25.7813 c 5.31,3.3164 10.98,5.8164 17.03,7.5 1.13,-1.25 1.72,-3.5508 1.72,-6.8711 0.39,-1.1797 0.55,-3.711 0.47,-7.6602 -0.31,-4.6093 -0.63,-7.3398 -0.94,-8.2812 -0.55,-2.1875 -2.03,-4.5313 -4.53,-7.0313 -3.44,-2.7383 -7.19,-4.0586 -11.25,-4.0586 -6.48,0 -10,3.3203 -10.62,10 -0.55,7.0703 2.18,12.5313 8.12,16.4024 z" /><path
         id="path40"
         style="fill:#92c039;fill-opacity:1;fill-rule:nonzero;stroke:none"
         d="m 1743.79,110.551 c -0.31,0.699 -0.55,1.398 -0.63,2.027 0,0.703 -0.11,1.172 -0.31,1.402 l 0.78,2.04 v 1.558 c -0.86,2.891 -2.26,5.082 -4.22,6.563 -1.79,1.129 -5.39,0.629 -10.78,-1.563 -2.81,-1.058 -5.15,-1.957 -7.03,-2.656 -1.8,-0.742 -3.2,-1.332 -4.22,-1.723 h -3.59 c -2.62,-0.859 -4.14,-1.558 -4.53,-2.179 -0.94,-1.801 -0.9,-3.36 0.15,-4.692 l 0.94,-0.308 1.1,-0.321 h 1.56 l 1.09,0.321 0.78,0.308 h 1.57 c -0.55,0 -0.47,0.043 0.15,0.152 0.63,0.079 1.76,0.2 3.44,0.321 1.13,0.187 2.26,-0.16 3.44,-1.102 1.01,-0.859 1.56,-4.449 1.56,-10.7771 0,-0.7422 0.04,-1.7227 0.16,-2.9727 0.19,-1.25 0.31,-1.9492 0.31,-2.0273 V 82.7305 c 0,-2.5 0,-4.961 0,-7.3399 0,-2.4218 -0.08,-4.8398 -0.16,-7.3398 -0.31,-8.0508 -1.52,-12.7813 -3.59,-14.2227 -3.05,-0.9375 -5.71,-1.25 -7.97,-0.9375 -3.67,0 -5.47,-1.6797 -5.47,-5 0.94,-1.9922 2.73,-2.9687 5.47,-2.9687 0.94,-0.3125 1.8,-0.4727 2.66,-0.4727 1.75,0.5117 2.73,0.7813 2.96,0.7813 0.71,0.0781 1.96,0.1601 3.75,0.1601 1.88,0.0782 4.3,0.1602 7.35,0.1602 h 8.44 c 6.01,-0.8594 9.45,-1.211 10.31,-1.1016 1.64,0.1992 3.32,0.6719 5,1.4102 1.76,0.6992 3.32,1.8711 4.69,3.4414 v 2.1797 c -1.88,1.7578 -4.07,2.2695 -6.57,1.5703 -0.23,0 -1.25,-0.2422 -3.12,-0.6289 -1.49,-0.3125 -2.58,-0.1524 -3.28,0.4687 -1.8,0.6992 -3.05,3.4805 -3.75,8.2813 -0.32,1.9492 -0.43,3.9492 -0.32,5.9375 0.08,2.0703 0.24,4.3008 0.47,6.7187 0.2,3.75 0.32,7.0703 0.32,10 0.07,3.0117 0.15,5.5117 0.15,7.5 1.45,9.3709 5.86,16.0119 13.28,19.9999 3.21,1.641 5.98,2.5 8.28,2.5 1.76,0 3.21,-0.387 4.38,-1.098 1.25,-0.742 2.11,-2.3 2.66,-4.679 0.62,-1.571 0.97,-3.832 1.09,-6.723 0.19,-1.3671 0.31,-3.5194 0.31,-6.4061 0.08,-2.9336 0.16,-6.7227 0.16,-11.4024 v -9.539 c 0,-3.3594 0.04,-6.211 0.15,-8.5899 0.08,-2.3008 0.2,-4.1797 0.32,-5.6211 0.7,-7 2.07,-11.3281 4.06,-12.9687 2.07,-1.5703 9.88,-2.3516 23.44,-2.3516 3.2,0.5117 5.15,0.8594 5.78,1.1016 1.13,1.25 1.72,2.9687 1.72,5.1484 -2.5,1.3321 -4.46,1.7227 -5.78,1.1016 h -5.63 c -1.68,0.6992 -2.77,1.4375 -3.28,2.1797 -0.24,0.0781 -0.7,1.25 -1.41,3.4414 0,3.0078 -0.39,5.2383 -1.09,6.7187 v 22.0313 c 0,5.5078 0,9.8789 0,13.1289 0,3.1992 -0.08,5.1872 -0.16,5.9292 -0.74,6.45 -1.25,10.2 -1.56,11.25 -1.17,3.008 -3.44,5.399 -6.87,7.192 -2.31,1.25 -4.85,1.879 -7.66,1.879 -4.61,0 -9.96,-1.531 -16.09,-4.531 -6.88,-4.379 -11.96,-7.899 -15.16,-10.469 z" /><path
         id="path42"
         style="fill:#92c039;fill-opacity:1;fill-rule:nonzero;stroke:none"
         d="m 1901.84,126.172 c 1.44,1.019 2.85,2.027 4.21,2.969 1.33,1.019 2.04,2.23 2.04,3.589 0,2.821 -1.1,5.2 -3.29,7.192 -2.18,1.957 -4.64,2.969 -7.34,2.969 -6.17,0 -11.99,-1.95 -17.5,-5.782 -1.99,-1.558 -3.91,-3.089 -5.78,-4.531 -1.88,-1.488 -3.83,-3.047 -5.78,-4.687 -1.56,-1.172 -5.08,-2.27 -10.47,-3.282 -8.87,-1.8 -16.37,-4.648 -22.5,-8.589 -9.3,-6.059 -14.02,-13.051 -14.22,-20.9419 -0.31,-6.4883 0.55,-11.207 2.66,-14.2187 0.93,-1.6797 2.42,-3.5586 4.53,-5.6289 2.19,-1.9922 5,-4.211 8.44,-6.711 -2.11,-1.1797 -3.83,-2.2695 -5.16,-3.289 -1.25,-0.9297 -2.27,-1.7891 -2.97,-2.5 -1.68,-2.1797 -2.46,-4.3711 -2.34,-6.5586 0.19,-4.3711 3.2,-8.711 9.06,-12.9727 -3.24,-3.1211 -5.78,-5.5 -7.66,-7.1797 -1.79,-1.7578 -2.89,-2.9687 -3.28,-3.5976 -3.12,-3.8321 -4.69,-7.5 -4.69,-10.9414 0,-3.1992 0.82,-5.9297 2.5,-8.1211 1.76,-2.2696 4.11,-4.05862 7.04,-5.30862 3,-1.33203 6.56,-2.23047 10.62,-2.66015 4.06,-0.39063 8.44,-0.39063 13.13,0 4.37,0.30859 8.43,0.89843 12.18,1.71875 3.75,0.85937 7.11,1.87109 10.16,3.12112 3.12,1.1797 7.54,3.7187 13.28,7.6601 2.81,1.8008 6.17,4.8086 10.16,9.0586 4.37,4.5 6.4,9.3789 6.09,14.6914 -0.31,4.6875 -3.08,8.4805 -8.28,11.4102 -2.73,1.6406 -7.34,3.039 -13.91,4.2187 -5.43,0.9297 -9.76,1.2813 -12.97,1.0899 -3.12,0 -6.17,-0.2383 -9.06,-0.6289 -2.81,-0.4297 -4.65,-0.6211 -5.47,-0.6211 -2.11,0 -6.21,1.0898 -12.34,3.2812 0,2.5782 1.41,4.2188 4.22,4.8399 1.01,0.5078 2.07,0.9414 3.12,1.25 1.14,0.3984 2.27,0.7109 3.44,0.9414 l 6.56,0.7773 c 0.71,0.1992 1.41,0.3203 2.03,0.3203 0.71,0 1.25,0.0313 1.57,0.1524 0.7,0.3086 1.33,0.5078 1.87,0.6289 0.51,0.0781 0.94,0.1875 1.25,0.3086 11.96,3.1992 20.78,7.3398 26.41,12.3398 5.62,5 8.44,11.6406 8.44,19.9998 0,6.879 -2.11,12.231 -6.25,16.102 -2.82,2.57 -8.05,5.187 -15.63,7.808 l -1.09,1.563 c 0.82,2.187 2.65,3.598 5.47,4.219 1.01,0.078 2.89,-0.313 5.62,-1.25 3.52,-2.422 5.63,-3.672 6.25,-3.75 z m -62.82,-27.3439 c 1.02,5.3129 3.01,9.5699 5.94,12.8129 3.01,3.32 7.85,5.308 14.53,5.937 2.58,0.313 6.25,-0.387 10.94,-2.027 4.88,-1.063 8.16,-2.742 9.84,-5 1.64,-2.192 2.7,-5.59 3.13,-10.16 0.39,-4.8012 0.35,-8.0512 -0.16,-9.6918 -1.36,-4.289 -3.67,-7.5781 -6.87,-9.8398 -1.8,-1.4805 -5.08,-2.8906 -9.85,-4.2188 -3.24,-0.8593 -6.64,-1.2109 -10.15,-1.0898 -4.07,0.0703 -7.74,1.4805 -10.94,4.2187 -1.25,0.8203 -2.34,2.0313 -3.28,3.5899 -0.86,1.6406 -1.56,3.3594 -2.19,5.1601 -0.55,1.8711 -0.9,3.75 -1.09,5.6211 -0.24,1.8789 -0.16,3.4375 0.15,4.6875 z m 43.13,-76.0976 c -4.3,-2.8086 -7.89,-4.9219 -10.78,-6.4024 -2.82,-1.5586 -5.08,-2.6992 -6.72,-3.4375 -2.5,-0.6992 -7.11,-0.9804 -13.75,-0.7812 -4.92,0.2304 -8.44,1.0898 -10.63,2.6601 -3.98,2.8086 -5.58,6.5586 -4.84,11.25 0.31,6.4805 3.32,11.25 9.06,14.3711 1.45,0.8594 6.33,1.211 14.69,1.0899 9.88,-0.3086 15.55,-0.5391 17.03,-0.7813 4.14,-0.9297 7.07,-1.75 8.75,-2.5 3.13,-1.6406 4.69,-3.4297 4.69,-5.3086 0.19,-2.5 -2.31,-5.8593 -7.5,-10.1601 z" /><path
         id="path44"
         style="fill:#92c039;fill-opacity:1;fill-rule:nonzero;stroke:none"
         d="m 1985.78,88.5195 c 3.52,3.5118 5.51,5.5391 5.94,6.0899 1.13,1.9492 1.64,4.7304 1.56,8.2816 -0.31,3.629 -1.8,7.269 -4.37,10.937 -2.74,3.942 -5.59,6.723 -8.6,8.281 -3.04,1.641 -7.11,2.661 -12.19,2.969 -4.49,0.313 -8.98,-0.078 -13.43,-1.098 -4.49,-1.05 -9.38,-2.929 -14.69,-5.621 -2.19,-1.168 -4.77,-3.129 -7.66,-5.937 -3.24,-3.043 -5.93,-6.481 -8.12,-10.313 -2.81,-4.9996 -4.34,-9.609 -4.53,-13.7496 -0.24,-4.4883 -0.24,-8.1992 0,-11.0899 0.7,-5.4297 1.6,-9.3007 2.65,-11.5703 4.26,-9.289 11.45,-15.8984 21.57,-19.8398 5,-1.7578 10.15,-2.6602 15.47,-2.6602 3.63,0 7.1,0.4297 10.46,1.25 3.83,1.6406 6.96,3.0508 9.38,4.2227 2.5,1.1289 4.3,2.0664 5.47,2.8086 3.63,2.2695 6.13,4.3789 7.5,6.25 1.44,2.8203 1.87,5.1992 1.25,7.1914 -1.37,0 -2.97,-0.7422 -4.85,-2.1914 -1.17,-1.4805 -2.61,-2.461 -4.37,-2.961 -6.49,-4.5 -12.62,-6.7187 -18.44,-6.7187 -4.69,0 -9.53,1.4375 -14.53,4.3711 -2.73,1.6367 -5.78,5.3476 -9.22,11.0976 -1.37,2.1797 -2.26,4.1407 -2.65,5.9297 -0.94,1.5703 -0.59,3.3594 1.09,5.4727 8.32,-0.7422 13.79,-0.9414 16.41,-0.6211 6.01,0.6211 12.26,2.1094 18.74,4.5273 1.88,0.7032 3.48,1.4024 4.85,2.0313 1.33,0.6992 2.54,1.4101 3.59,2.0312 z m -35.16,-3.75 c 0.2,0.3086 -3.39,0.461 -10.78,0.461 -1.25,0.7109 -1.87,2.8906 -1.87,6.5703 0,2.0703 0.35,4.4101 1.09,7.0273 1.45,5.3129 4.3,9.9219 8.6,13.9019 1.95,1.758 4.68,3.321 8.12,4.692 3.52,1.449 6.49,1.918 8.91,1.406 4.45,-0.859 7.73,-3.598 9.84,-8.277 2.19,-5.321 1.64,-10.391 -1.56,-15.1604 -4.38,-6.9922 -11.84,-10.5508 -22.35,-10.6211 z" /><path
         id="path46"
         style="fill:#00b4e6;fill-opacity:1;fill-rule:nonzero;stroke:none"
         d="M 720.621,69.3789 733.59,53.2813 c 3.64,-4.6915 9.379,-8.8711 17.191,-12.5 1.949,-0.9415 3.199,-1.8321 3.75,-2.6602 0.078,-0.4219 0.16,-0.7422 0.16,-0.9297 -0.121,-0.3125 -0.16,-0.5508 -0.16,-0.6328 -0.429,-0.3086 -0.941,-0.4688 -1.562,-0.4688 H 726.25 c -2.621,0 -5.469,2.4297 -8.59,7.3516 -2.43,3.75 -4.93,7.1094 -7.5,10.1484 -5.859,-7.3007 -12.109,-12.6093 -18.75,-15.9296 -6.801,-3.211 -14.34,-4.8516 -22.66,-4.8516 -10,0 -17.969,2.9297 -23.91,8.75 -5.309,5.5117 -7.961,12.5 -7.961,20.9414 0,0.9414 0.031,1.8008 0.152,2.6602 0.391,8.75 3.047,16.5586 7.969,23.4296 4.57,6.7618 12.5,13.8322 23.75,21.2502 -4.488,6.019 -7.969,11.961 -10.469,17.82 -2.191,5.07 -3.281,10.5 -3.281,16.25 0,0.93 0.039,1.871 0.16,2.809 0.309,9.691 3.469,17.543 9.531,23.59 5.821,5.711 13.43,8.601 22.809,8.601 9.262,0 16.328,-2.351 21.25,-7.031 4.57,-4.379 6.871,-10.16 6.871,-17.348 v -1.871 c -0.543,-7.738 -2.961,-14.539 -7.34,-20.469 -4.801,-6.371 -12.031,-12.582 -21.722,-18.601 l 29.382,-38.4298 12.18,22.8086 c 0.629,1.25 0.981,2.5002 1.098,3.7502 0.082,0.39 0.16,0.781 0.16,1.09 0,0.711 -0.117,1.453 -0.32,2.191 -0.309,0.82 -0.739,1.48 -1.25,2.031 -0.43,0.629 -0.739,1.289 -0.93,2.028 -0.117,0.203 -0.16,0.39 -0.16,0.632 v 0.469 c 0,0 0.082,0.192 0.312,0.621 0.508,1.449 1.25,2.188 2.188,2.188 H 757.5 c 0.699,0 1.289,-0.239 1.719,-0.629 0,-0.11 0,-0.27 0,-0.461 v -0.32 c 0,-0.231 0,-0.469 0,-0.778 -0.43,-0.742 -1.68,-1.64 -3.75,-2.66 -1.168,-0.543 -2.418,-1.09 -3.75,-1.711 -1.25,-0.551 -2.5,-1.211 -3.75,-2.031 -5.43,-3.559 -10.078,-8.2071 -13.91,-13.9102 -3.75,-5.629 -8.239,-12.6602 -13.438,-21.0899 z M 682.34,119.379 c 6.57,3.941 11.41,8.43 14.539,13.43 3,4.89 4.723,11.101 5.152,18.601 v 1.559 c 0,5 -0.902,9.261 -2.652,12.812 -2.109,3.949 -6.328,5.938 -12.66,5.938 -4.918,0 -8.828,-1.68 -11.719,-5 -2.93,-3.559 -4.531,-8.239 -4.84,-14.059 0,-0.859 0,-1.64 0,-2.351 0,-10.309 4.059,-20.618 12.18,-30.93 z M 705.781,59.6914 672.5,103.59 C 661.02,95.2305 655,85.0781 654.379,73.1211 c 0,-0.7422 0,-1.4805 0,-2.1797 0,-7.5 2.031,-13.8711 6.09,-19.0625 4.453,-5.9375 10.152,-8.9101 17.031,-8.9101 5.941,0 11.172,1.6015 15.781,4.8398 4.688,3.2109 8.828,7.1914 12.5,11.8828 z" /></g></g></svg>